ffmpeg started on 2025-06-07 at 16:37:29
Report written to "D:\Convert\FFMetrics\reports\ssim_report-6.txt"
Log level: 32
Command line:
ffmpeg -hide_banner -nostdin -i "G:\\\xc0\xed\xe8\xec\xe5\\\xce\xed\xe3\xee\xe8\xed\xe3\xe8\\!_36_\xce\xf1\xe5\xed\xfc_2024\\DreamCast\\\xd6\xe8\xea\xeb \xe8\xf1\xf2\xee\xf0\xe8\xe9 - \xcc\xe5\xe6\xf1\xe5\xe7\xee\xed\xfc\xe5 \xe8 \xf1\xe5\xe7\xee\xed \xec\xee\xed\xf1\xf2\xf0\xee\xe2\\DC_Monogatari_Series_Off_and_Monster_Season_06_5_Telegram_HEVC.mkv" -i "G:\\\xc0\xed\xe8\xec\xe5\\\xce\xed\xe3\xee\xe8\xed\xe3\xe8\\!_36_\xce\xf1\xe5\xed\xfc_2024\\DreamCast\\\xd6\xe8\xea\xeb \xe8\xf1\xf2\xee\xf0\xe8\xe9 - \xcc\xe5\xe6\xf1\xe5\xe7\xee\xed\xfc\xe5 \xe8 \xf1\xe5\xe7\xee\xed \xec\xee\xed\xf1\xf2\xf0\xee\xe2\\DC_Monogatari_Series_Off_and_Monster_Season_06_5_Telegram.mp4" -lavfi "[0:v]settb=AVTB,setpts=PTS-STARTPTS,format=pix_fmts=yuv420p10,fps=24000/1001,scale=1920:1080:flags=bicubic[main];[1:v]settb=AVTB,setpts=PTS-STARTPTS,format=pix_fmts=yuv420p,fps=24000/1001,scale=1920:1080:flags=bicubic[ref];[main][ref]ssim=eof_action=endall:stats_file='D\\:/Convert/FFMetrics/logs/ssim_logfile-6.txt'" -f null -
Input #0, matroska,webm, from 'G:\Аниме\Онгоинги\!_36_Осень_2024\DreamCast\Цикл историй - Межсезонье и сезон монстров\DC_Monogatari_Series_Off_and_Monster_Season_06_5_Telegram_HEVC.mkv':
  Metadata:
    COMPATIBLE_BRANDS: isomiso2avc1mp41
    MAJOR_BRAND     : isom
    MINOR_VERSION   : 512
    ENCODER         : Lavf61.7.100
  Duration: 00:12:37.46, start: -0.021000, bitrate: 1118 kb/s
  Stream #0:0: Video: hevc (Main 10), yuv420p10le(tv, bt709, progressive), 1920x1080 [SAR 1:1 DAR 16:9], 23.98 fps, 23.98 tbr, 1k tbn (default)
      Metadata:
        HANDLER_NAME    : VideoHandler
        VENDOR_ID       : [0][0][0][0]
        ENCODER         : Lavc61.19.100 libx265
        BPS             : 927964
        DURATION        : 00:12:37.298708333
        NUMBER_OF_FRAMES: 18157
        NUMBER_OF_BYTES : 87843182
        _STATISTICS_WRITING_APP: mkvpropedit v66.0.0 ('Josie') 64-bit
        _STATISTICS_WRITING_DATE_UTC: 2025-06-05 10:56:02
        _STATISTICS_TAGS: BPS DURATION NUMBER_OF_FRAMES NUMBER_OF_BYTES
  Stream #0:1: Audio: aac (LC), 48000 Hz, stereo, fltp (default)
      Metadata:
        HANDLER_NAME    : SoundHandler
        VENDOR_ID       : [0][0][0][0]
        ENCODER         : Lavc61.19.100 aac
        BPS             : 186253
        DURATION        : 00:12:37.461000000
        NUMBER_OF_FRAMES: 35507
        NUMBER_OF_BYTES : 17635016
        _STATISTICS_WRITING_APP: mkvpropedit v66.0.0 ('Josie') 64-bit
        _STATISTICS_WRITING_DATE_UTC: 2025-06-05 10:56:02
        _STATISTICS_TAGS: BPS DURATION NUMBER_OF_FRAMES NUMBER_OF_BYTES
Input #1, mov,mp4,m4a,3gp,3g2,mj2, from 'G:\Аниме\Онгоинги\!_36_Осень_2024\DreamCast\Цикл историй - Межсезонье и сезон монстров\DC_Monogatari_Series_Off_and_Monster_Season_06_5_Telegram.mp4':
  Metadata:
    major_brand     : isom
    minor_version   : 512
    compatible_brands: isomiso2avc1mp41
    encoder         : Lavf60.16.100
  Duration: 00:12:37.43, start: 0.000000, bitrate: 3730 kb/s
  Stream #1:0[0x1](und): Video: h264 (High) (avc1 / 0x31637661), yuv420p(tv, bt709, progressive), 1920x1080 [SAR 1:1 DAR 16:9], 3583 kb/s, 23.98 fps, 23.98 tbr, 24k tbn (default)
      Metadata:
        handler_name    : VideoHandler
        vendor_id       : [0][0][0][0]
        encoder         : Lavc60.31.102 h264_qsv
  Stream #1:1[0x2](und): Audio: aac (HE-AACv2) (mp4a / 0x6134706D), 48000 Hz, stereo, fltp, 144 kb/s (default)
      Metadata:
        handler_name    : SoundHandler
        vendor_id       : [0][0][0][0]
Stream mapping:
  Stream #0:0 (hevc) -> settb:default
  Stream #1:0 (h264) -> settb:default
  ssim:default -> Stream #0:0 (wrapped_avframe)
  Stream #0:1 -> #0:1 (aac (native) -> pcm_s16le (native))
Output #0, null, to 'pipe:':
  Metadata:
    COMPATIBLE_BRANDS: isomiso2avc1mp41
    MAJOR_BRAND     : isom
    MINOR_VERSION   : 512
    encoder         : Lavf61.7.100
  Stream #0:0: Video: wrapped_avframe, yuv420p10le(tv, bt709, progressive), 1920x1080 [SAR 1:1 DAR 16:9], q=2-31, 200 kb/s, 23.98 fps, 23.98 tbn
      Metadata:
        encoder         : Lavc61.19.100 wrapped_avframe
  Stream #0:1: Audio: pcm_s16le, 48000 Hz, stereo, s16, 1536 kb/s (default)
      Metadata:
        HANDLER_NAME    : SoundHandler
        VENDOR_ID       : [0][0][0][0]
        _STATISTICS_TAGS: BPS DURATION NUMBER_OF_FRAMES NUMBER_OF_BYTES
        BPS             : 186253
        DURATION        : 00:12:37.461000000
        NUMBER_OF_FRAMES: 35507
        NUMBER_OF_BYTES : 17635016
        _STATISTICS_WRITING_APP: mkvpropedit v66.0.0 ('Josie') 64-bit
        _STATISTICS_WRITING_DATE_UTC: 2025-06-05 10:56:02
        encoder         : Lavc61.19.100 pcm_s16le
frame=  192 fps=0.0 q=-0.0 size=N/A time=00:00:08.00 bitrate=N/A speed=15.4x    frame=  435 fps=416 q=-0.0 size=N/A time=00:00:18.14 bitrate=N/A speed=17.4x    frame=  640 fps=411 q=-0.0 size=N/A time=00:00:26.69 bitrate=N/A speed=17.2x    frame=  860 fps=413 q=-0.0 size=N/A time=00:00:35.86 bitrate=N/A speed=17.2x    frame= 1068 fps=412 q=-0.0 size=N/A time=00:00:44.54 bitrate=N/A speed=17.2x    frame= 1275 fps=411 q=-0.0 size=N/A time=00:00:53.17 bitrate=N/A speed=17.1x    frame= 1500 fps=413 q=-0.0 size=N/A time=00:01:02.56 bitrate=N/A speed=17.2x    frame= 1693 fps=409 q=-0.0 size=N/A time=00:01:10.61 bitrate=N/A speed=17.1x    frame= 1883 fps=405 q=-0.0 size=N/A time=00:01:18.53 bitrate=N/A speed=16.9x    frame= 2094 fps=405 q=-0.0 size=N/A time=00:01:27.33 bitrate=N/A speed=16.9x    frame= 2290 fps=403 q=-0.0 size=N/A time=00:01:35.51 bitrate=N/A speed=16.8x    frame= 2534 fps=409 q=-0.0 size=N/A time=00:01:45.68 bitrate=N/A speed=  17x    frame= 2766 fps=412 q=-0.0 size=N/A time=00:01:55.36 bitrate=N/A speed=17.2x    frame= 3010 fps=416 q=-0.0 size=N/A time=00:02:05.54 bitrate=N/A speed=17.4x    frame= 3246 fps=419 q=-0.0 size=N/A time=00:02:15.38 bitrate=N/A speed=17.5x    frame= 3503 fps=424 q=-0.0 size=N/A time=00:02:26.10 bitrate=N/A speed=17.7x    frame= 3737 fps=426 q=-0.0 size=N/A time=00:02:35.86 bitrate=N/A speed=17.8x    frame= 3952 fps=425 q=-0.0 size=N/A time=00:02:44.83 bitrate=N/A speed=17.7x    frame= 4162 fps=425 q=-0.0 size=N/A time=00:02:53.59 bitrate=N/A speed=17.7x    frame= 4389 fps=425 q=-0.0 size=N/A time=00:03:03.05 bitrate=N/A speed=17.7x    frame= 4581 fps=423 q=-0.0 size=N/A time=00:03:11.06 bitrate=N/A speed=17.6x    frame= 4802 fps=423 q=-0.0 size=N/A time=00:03:20.28 bitrate=N/A speed=17.6x    frame= 5010 fps=422 q=-0.0 size=N/A time=00:03:28.95 bitrate=N/A speed=17.6x    frame= 5238 fps=423 q=-0.0 size=N/A time=00:03:38.46 bitrate=N/A speed=17.6x    frame= 5470 fps=424 q=-0.0 size=N/A time=00:03:48.14 bitrate=N/A speed=17.7x    frame= 5685 fps=424 q=-0.0 size=N/A time=00:03:57.11 bitrate=N/A speed=17.7x    frame= 5922 fps=425 q=-0.0 size=N/A time=00:04:06.99 bitrate=N/A speed=17.7x    frame= 6154 fps=426 q=-0.0 size=N/A time=00:04:16.67 bitrate=N/A speed=17.8x    frame= 6385 fps=427 q=-0.0 size=N/A time=00:04:26.30 bitrate=N/A speed=17.8x    frame= 6602 fps=426 q=-0.0 size=N/A time=00:04:35.35 bitrate=N/A speed=17.8x    frame= 6808 fps=426 q=-0.0 size=N/A time=00:04:43.95 bitrate=N/A speed=17.7x    frame= 7041 fps=426 q=-0.0 size=N/A time=00:04:53.66 bitrate=N/A speed=17.8x    frame= 7267 fps=427 q=-0.0 size=N/A time=00:05:03.09 bitrate=N/A speed=17.8x    frame= 7489 fps=427 q=-0.0 size=N/A time=00:05:12.35 bitrate=N/A speed=17.8x    frame= 7713 fps=427 q=-0.0 size=N/A time=00:05:21.69 bitrate=N/A speed=17.8x    frame= 7967 fps=429 q=-0.0 size=N/A time=00:05:32.29 bitrate=N/A speed=17.9x    frame= 8222 fps=431 q=-0.0 size=N/A time=00:05:42.92 bitrate=N/A speed=  18x    frame= 8471 fps=432 q=-0.0 size=N/A time=00:05:53.31 bitrate=N/A speed=  18x    frame= 8720 fps=433 q=-0.0 size=N/A time=00:06:03.69 bitrate=N/A speed=18.1x    frame= 8980 fps=435 q=-0.0 size=N/A time=00:06:14.54 bitrate=N/A speed=18.1x    frame= 9243 fps=437 q=-0.0 size=N/A time=00:06:25.51 bitrate=N/A speed=18.2x    frame= 9492 fps=438 q=-0.0 size=N/A time=00:06:35.89 bitrate=N/A speed=18.3x    frame= 9727 fps=438 q=-0.0 size=N/A time=00:06:45.69 bitrate=N/A speed=18.3x    frame= 9968 fps=439 q=-0.0 size=N/A time=00:06:55.74 bitrate=N/A speed=18.3x    frame=10154 fps=437 q=-0.0 size=N/A time=00:07:03.50 bitrate=N/A speed=18.2x    frame=10349 fps=436 q=-0.0 size=N/A time=00:07:11.63 bitrate=N/A speed=18.2x    frame=10547 fps=435 q=-0.0 size=N/A time=00:07:19.89 bitrate=N/A speed=18.1x    frame=10747 fps=434 q=-0.0 size=N/A time=00:07:28.23 bitrate=N/A speed=18.1x    frame=10970 fps=434 q=-0.0 size=N/A time=00:07:37.54 bitrate=N/A speed=18.1x    frame=11196 fps=434 q=-0.0 size=N/A time=00:07:46.96 bitrate=N/A speed=18.1x    frame=11427 fps=434 q=-0.0 size=N/A time=00:07:56.60 bitrate=N/A speed=18.1x    frame=11668 fps=435 q=-0.0 size=N/A time=00:08:06.65 bitrate=N/A speed=18.1x    frame=11887 fps=435 q=-0.0 size=N/A time=00:08:15.78 bitrate=N/A speed=18.1x    frame=12089 fps=434 q=-0.0 size=N/A time=00:08:24.21 bitrate=N/A speed=18.1x    frame=12290 fps=433 q=-0.0 size=N/A time=00:08:32.59 bitrate=N/A speed=18.1x    frame=12523 fps=433 q=-0.0 size=N/A time=00:08:42.31 bitrate=N/A speed=18.1x    frame=12760 fps=434 q=-0.0 size=N/A time=00:08:52.19 bitrate=N/A speed=18.1x    frame=13002 fps=434 q=-0.0 size=N/A time=00:09:02.29 bitrate=N/A speed=18.1x    frame=13245 fps=435 q=-0.0 size=N/A time=00:09:12.42 bitrate=N/A speed=18.1x    frame=13462 fps=435 q=-0.0 size=N/A time=00:09:21.47 bitrate=N/A speed=18.1x    frame=13688 fps=435 q=-0.0 size=N/A time=00:09:30.90 bitrate=N/A speed=18.1x    frame=13929 fps=435 q=-0.0 size=N/A time=00:09:40.95 bitrate=N/A speed=18.2x    frame=14150 fps=435 q=-0.0 size=N/A time=00:09:50.17 bitrate=N/A speed=18.2x    frame=14375 fps=435 q=-0.0 size=N/A time=00:09:59.55 bitrate=N/A speed=18.2x    frame=14582 fps=435 q=-0.0 size=N/A time=00:10:08.19 bitrate=N/A speed=18.1x    frame=14786 fps=434 q=-0.0 size=N/A time=00:10:16.69 bitrate=N/A speed=18.1x    frame=14998 fps=434 q=-0.0 size=N/A time=00:10:25.54 bitrate=N/A speed=18.1x    frame=15212 fps=434 q=-0.0 size=N/A time=00:10:34.46 bitrate=N/A speed=18.1x    frame=15462 fps=434 q=-0.0 size=N/A time=00:10:44.89 bitrate=N/A speed=18.1x    frame=15692 fps=434 q=-0.0 size=N/A time=00:10:54.48 bitrate=N/A speed=18.1x    frame=15960 fps=436 q=-0.0 size=N/A time=00:11:05.66 bitrate=N/A speed=18.2x    frame=16219 fps=437 q=-0.0 size=N/A time=00:11:16.46 bitrate=N/A speed=18.2x    frame=16492 fps=438 q=-0.0 size=N/A time=00:11:27.85 bitrate=N/A speed=18.3x    frame=16746 fps=439 q=-0.0 size=N/A time=00:11:38.44 bitrate=N/A speed=18.3x    frame=16995 fps=439 q=-0.0 size=N/A time=00:11:48.83 bitrate=N/A speed=18.3x    frame=17252 fps=440 q=-0.0 size=N/A time=00:11:59.55 bitrate=N/A speed=18.3x    frame=17510 fps=441 q=-0.0 size=N/A time=00:12:10.31 bitrate=N/A speed=18.4x    frame=17766 fps=441 q=-0.0 size=N/A time=00:12:20.99 bitrate=N/A speed=18.4x    frame=18044 fps=443 q=-0.0 size=N/A time=00:12:32.58 bitrate=N/A speed=18.5x    [Parsed_ssim_10 @ 000001d857601d80] SSIM Y:0.995120 (23.115926) U:0.995420 (23.391126) V:0.994817 (22.854155) All:0.995120 (23.115400)
[out#0/null @ 000001d857b87c40] video:7802KiB audio:142028KiB subtitle:0KiB other streams:0KiB global headers:0KiB muxing overhead: unknown
frame=18157 fps=443 q=-0.0 Lsize=N/A time=00:12:37.29 bitrate=N/A speed=18.5x    
